<svg xmlns="http://www.w3.org/2000/svg" viewBox="0 0 675.8 45.71"><defs><style>.cls-1{fill:#fff;}</style></defs><title>Asset 1</title><g id="Layer_2" data-name="Layer 2"><g id="Layer_1-2" data-name="Layer 1"><path class="cls-1" d="M16.54,2.36V32.22c0,3.36-.06,7.15-2.55,9.76A8.52,8.52,0,0,1,7.4,44.59a9.41,9.41,0,0,1-7.4-3l2.55-3.61a6.71,6.71,0,0,0,4.73,2.3,4.37,4.37,0,0,0,3.11-1.18c1.55-1.55,1.55-4.17,1.55-6.72v-30Z"/><path class="cls-1" d="M61.2,6.72H44.29V19H60.71v4.35H44.29V39.49H61.2v4.35H39.68V2.36H61.2Z"/><path class="cls-1" d="M100.64,10.57a10,10,0,0,0-2.43-3.11A7.46,7.46,0,0,0,93.55,6c-4.1,0-7,2.55-7,6.41A4.35,4.35,0,0,0,88.14,16a13.54,13.54,0,0,0,4.35,2.61l4,1.74a20.16,20.16,0,0,1,6.41,3.92,10,10,0,0,1,3,7.53c0,7.65-5.66,12.75-13.12,12.75a12.37,12.37,0,0,1-9-3.36,15,15,0,0,1-3.86-7.34l4.48-1.24a9.79,9.79,0,0,0,2.49,5.29,7.93,7.93,0,0,0,6,2.3c5.66,0,8.33-4,8.33-8.21a6.19,6.19,0,0,0-2.05-4.85,18.11,18.11,0,0,0-5-2.86l-3.73-1.74a18.37,18.37,0,0,1-5.54-3.42A8.61,8.61,0,0,1,82,12.38C82,6,86.89,1.68,93.61,1.68a11.24,11.24,0,0,1,6.66,1.87,12.55,12.55,0,0,1,4,4.6Z"/><path class="cls-1" d="M144,10.57a10,10,0,0,0-2.43-3.11A7.46,7.46,0,0,0,136.9,6c-4.1,0-7,2.55-7,6.41A4.35,4.35,0,0,0,131.49,16a13.54,13.54,0,0,0,4.35,2.61l4,1.74a20.16,20.16,0,0,1,6.41,3.92,10,10,0,0,1,3,7.53c0,7.65-5.66,12.75-13.12,12.75a12.37,12.37,0,0,1-9-3.36,15,15,0,0,1-3.86-7.34l4.48-1.24a9.79,9.79,0,0,0,2.49,5.29,7.93,7.93,0,0,0,6,2.3c5.66,0,8.33-4,8.33-8.21a6.19,6.19,0,0,0-2.05-4.85,18.11,18.11,0,0,0-5-2.86l-3.73-1.74a18.37,18.37,0,0,1-5.54-3.42,8.61,8.61,0,0,1-2.86-6.78c0-6.41,4.91-10.7,11.63-10.7a11.24,11.24,0,0,1,6.66,1.87,12.55,12.55,0,0,1,4,4.6Z"/><path class="cls-1" d="M174.72,2.36V43.85h-4.6V2.36Z"/><path class="cls-1" d="M229.58,11.51a20.45,20.45,0,0,0-5.41-3.86A17.67,17.67,0,0,0,217,6c-9.58,0-16.67,7.71-16.67,17.29,0,11.26,9.14,16.92,16.73,16.92a17.25,17.25,0,0,0,7.71-1.93,18.86,18.86,0,0,0,4.79-3.48v5.72a21.6,21.6,0,0,1-12.5,4,21,21,0,0,1-21.46-21.33c0-12.38,9.27-21.58,21.71-21.58a19.55,19.55,0,0,1,12.25,4.1Z"/><path class="cls-1" d="M273.37,32.15H255.7l-5,11.69h-5.1L264.72.37l18.6,43.47h-5.1Zm-1.8-4.35-7-16.61L257.51,27.8Z"/><path class="cls-1" d="M347.07,10.57a10,10,0,0,0-2.43-3.11A7.46,7.46,0,0,0,340,6c-4.1,0-7,2.55-7,6.41A4.35,4.35,0,0,0,334.57,16a13.54,13.54,0,0,0,4.35,2.61l4,1.74a20.16,20.16,0,0,1,6.41,3.92,10,10,0,0,1,3,7.53c0,7.65-5.66,12.75-13.12,12.75a12.37,12.37,0,0,1-9-3.36,15,15,0,0,1-3.86-7.34l4.48-1.24a9.79,9.79,0,0,0,2.49,5.29,7.93,7.93,0,0,0,6,2.3c5.66,0,8.33-4,8.33-8.21a6.19,6.19,0,0,0-2.05-4.85,18.11,18.11,0,0,0-5-2.86l-3.73-1.74a18.37,18.37,0,0,1-5.54-3.42,8.61,8.61,0,0,1-2.86-6.78c0-6.41,4.91-10.7,11.63-10.7a11.24,11.24,0,0,1,6.66,1.87,12.54,12.54,0,0,1,4,4.6Z"/><path class="cls-1" d="M377.8,19.22h21.27V2.36h4.6V43.85h-4.6V23.57H377.8V43.85h-4.6V2.36h4.6Z"/><path class="cls-1" d="M449.7,32.15H432l-5,11.69H422L441.06.37l18.6,43.47h-5.1Zm-1.8-4.35-7-16.61L433.84,27.8Z"/><path class="cls-1" d="M484.6,2.36c2.8,0,7,.19,10.08,2.3a10.82,10.82,0,0,1,4.54,9.2c0,6.34-4.17,11-10.45,11.44L502,43.85h-5.6L483.73,25.69h-1.18V43.85h-4.6V2.36Zm-2.05,19.22h2.92c5.72,0,9.14-2.74,9.14-7.59a6.45,6.45,0,0,0-3.3-6.1,11.83,11.83,0,0,0-6-1.18h-2.8Z"/><path class="cls-1" d="M520.18,43.85,527.08.06l15.92,35L559.24,0l6.47,43.85H561L557.06,15l-14.12,30.6L529,15l-4.11,28.86Z"/><path class="cls-1" d="M610.62,32.15H593l-5,11.69h-5.1L602,.37l18.6,43.47h-5.1Zm-1.8-4.35-7-16.61L594.76,27.8Z"/><path class="cls-1" d="M638.86,43.85V.62l32.34,33.9V2.36h4.6V45.71l-32.34-33.9v32Z"/></g></g></svg>